<?xml version="1.0" encoding="utf-8"?>
<!-- Generator: Adobe Illustrator 19.0.0, SVG Export Plug-In . SVG Version: 6.00 Build 0)  -->
<svg version="1.1" id="Layer_1" xmlns="http://www.w3.org/2000/svg" xmlns:xlink="http://www.w3.org/1999/xlink" x="0px" y="0px"
	 width="26.7px" height="24px" viewBox="201.6 382.9 26.7 24" style="enable-background:new 201.6 382.9 26.7 24;"
	 xml:space="preserve">
<g>
	<path d="M215,388.1c-0.3,0-0.5,0.2-0.5,0.5c0,0.3,0.2,0.5,0.5,0.5s0.5-0.2,0.5-0.5C215.5,388.3,215.3,388.1,215,388.1z"/>
	<path d="M206.3,397.5c0.3,0,0.5-0.2,0.5-0.5c0-0.3-0.2-0.5-0.5-0.5s-0.5,0.2-0.5,0.5C205.8,397.3,206.1,397.5,206.3,397.5z"/>
	<path d="M219.2,382.9c-4.7,0-8.6,3.2-8.9,7.3c-4.5,0.2-8.7,3.5-8.7,7.8c0,1.8,0.7,3.6,2,5c0.3,1.1-0.1,2.2-0.8,3
		c-0.1,0.1-0.2,0.4-0.1,0.6c0.1,0.2,0.3,0.3,0.5,0.3c1.5,0,2.9-0.6,4-1.6c1,0.4,2.4,0.6,3.6,0.6c4.7,0,8.6-3.2,8.9-7.3
		c1.1,0,2.2-0.3,3.1-0.6c1.1,1,2.5,1.6,4,1.6c0.2,0,0.4-0.1,0.5-0.3c0.1-0.2,0-0.4-0.1-0.6c-0.8-0.8-1.1-1.9-0.8-3
		c1.3-1.4,2-3.2,2-5C228.4,386.2,223.8,382.9,219.2,382.9z M210.8,404.8c-1.2,0-2.6-0.2-3.6-0.6c-0.2-0.1-0.4,0-0.6,0.1
		c-0.6,0.7-1.4,1.2-2.3,1.4c0.5-0.9,0.6-2.1,0.3-3.1c0-0.1-0.1-0.2-0.1-0.2c-1.2-1.2-1.8-2.8-1.8-4.4c0-3.7,3.7-6.8,8.1-6.8
		c4.2,0,7.8,2.9,7.8,6.8C218.7,401.8,215.1,404.8,210.8,404.8z M225.5,395.1c-0.1,0.1-0.1,0.1-0.1,0.2c-0.3,1.1-0.2,2.2,0.3,3.1
		c-0.9-0.2-1.7-0.7-2.3-1.4c-0.1-0.2-0.4-0.2-0.6-0.1c-0.8,0.3-2,0.5-3.1,0.6c-0.2-2-1.1-3.8-2.8-5.2h6.8c0.3,0,0.5-0.2,0.5-0.5
		s-0.2-0.5-0.5-0.5h-8.4c-1.2-0.6-2.5-1-3.9-1c0.3-3.5,3.7-6.3,7.8-6.3c4.4,0,8.1,3.1,8.1,6.8C227.3,392.3,226.7,393.9,225.5,395.1z
		"/>
	<path d="M215,396.5h-6.6c-0.3,0-0.5,0.2-0.5,0.5s0.2,0.5,0.5,0.5h6.6c0.3,0,0.5-0.2,0.5-0.5S215.3,396.5,215,396.5z"/>
	<path d="M215,399.6h-8.7c-0.3,0-0.5,0.2-0.5,0.5c0,0.3,0.2,0.5,0.5,0.5h8.7c0.3,0,0.5-0.2,0.5-0.5
		C215.5,399.8,215.3,399.6,215,399.6z"/>
	<path d="M223.7,388.1h-6.6c-0.3,0-0.5,0.2-0.5,0.5s0.2,0.5,0.5,0.5h6.6c0.3,0,0.5-0.2,0.5-0.5S223.9,388.1,223.7,388.1z"/>
</g>
</svg>
