<?xml version="1.0" encoding="utf-8"?>
<!-- Generator: Adobe Illustrator 19.0.0, SVG Export Plug-In . SVG Version: 6.00 Build 0)  -->
<svg version="1.1" id="Capa_1" xmlns="http://www.w3.org/2000/svg" xmlns:xlink="http://www.w3.org/1999/xlink" x="0px" y="0px"
	 width="21.5px" height="24px" viewBox="204.3 408.9 21.5 24" style="enable-background:new 204.3 408.9 21.5 24;"
	 xml:space="preserve">
<g>
	<g>
		<g>
			<path d="M223.7,425.5c-0.2,0-0.4,0.2-0.4,0.4v5.3c0,0.6-0.5,1.1-1.1,1.1h-14.9c-0.6,0-1.1-0.5-1.1-1.1v-1.4
				c0-0.2-0.2-0.4-0.4-0.4s-0.4,0.2-0.4,0.4v1.4c0,1,0.8,1.8,1.8,1.8h14.9c1,0,1.8-0.8,1.8-1.8v-5.3
				C224.1,425.6,223.9,425.5,223.7,425.5z"/>
		</g>
	</g>
	<g>
		<g>
			<path d="M224.6,412.1h-0.5v-1.5c0-1-0.8-1.8-1.8-1.8h-14.9c-1,0-1.8,0.8-1.8,1.8v2.5h-1c-0.2,0-0.4,0.2-0.4,0.4s0.2,0.4,0.4,0.4
				h1v3h-1c-0.2,0-0.4,0.2-0.4,0.4c0,0.2,0.2,0.4,0.4,0.4h1v3h-1c-0.2,0-0.4,0.2-0.4,0.4c0,0.2,0.2,0.4,0.4,0.4h1v3h-1
				c-0.2,0-0.4,0.2-0.4,0.4c0,0.2,0.2,0.4,0.4,0.4h1v3h-1c-0.2,0-0.4,0.2-0.4,0.4s0.2,0.4,0.4,0.4h2.7c0.2,0,0.4-0.2,0.4-0.4
				s-0.2-0.4-0.4-0.4h-1v-3h1c0.2,0,0.4-0.2,0.4-0.4c0-0.2-0.2-0.4-0.4-0.4h-1v-3h1c0.2,0,0.4-0.2,0.4-0.4c0-0.2-0.2-0.4-0.4-0.4h-1
				v-3h1c0.2,0,0.4-0.2,0.4-0.4s-0.2-0.4-0.4-0.4h-1v-3h1c0.2,0,0.4-0.2,0.4-0.4c0-0.2-0.2-0.4-0.4-0.4h-1v-2.5
				c0-0.6,0.5-1.1,1.1-1.1h14.9c0.6,0,1.1,0.5,1.1,1.1v1.8v3.4c0,0,0,0,0,0v3.7c0,0,0,0,0,0v4.8c0,0.2,0.2,0.4,0.4,0.4
				c0.2,0,0.4-0.2,0.4-0.4v-4.5h0.5c0.6,0,1.2-0.5,1.2-1.2v-2c0-0.2-0.1-0.5-0.2-0.7c0.1-0.2,0.2-0.4,0.2-0.7v-2h0
				C225.7,412.7,225.2,412.1,224.6,412.1z M225,418.7c0,0.3-0.2,0.5-0.5,0.5h-0.5v-2.7h0.5c0.1,0,0.3,0,0.4-0.1
				c0,0.1,0.1,0.1,0.1,0.2V418.7z M225,415.4c0,0.3-0.2,0.5-0.5,0.5h-0.5v-3h0.5c0.3,0,0.5,0.2,0.5,0.5V415.4z"/>
		</g>
	</g>
	<g>
		<g>
			<path d="M220.8,419.7h-6.3c-0.7,0-1.2,0.5-1.2,1.2v7.3c0,0.7,0.5,1.2,1.2,1.2h6.3c0.7,0,1.2-0.5,1.2-1.2v-7.3
				C222,420.3,221.4,419.7,220.8,419.7z M219.3,428.7h-3.4v-0.6c0-0.4,0.3-0.6,0.6-0.6h0.1v0c0,0,0,0.1,0.1,0.1l0.5,0.6
				c0.1,0.1,0.2,0.2,0.4,0.2c0,0,0,0,0,0c0.1,0,0.3-0.1,0.4-0.2l0.5-0.6c0,0,0.1-0.1,0.1-0.1h0.1c0.4,0,0.6,0.3,0.6,0.6V428.7z
				 M216,424.7c0.2,0,0.4-0.2,0.4-0.4v-0.5c0,0,0.1,0,0.1,0h2.4v0.5c0,0.2,0.2,0.4,0.4,0.4h0.1c0,0,0,0,0,0v0.2c0,0,0,0,0,0h-0.1
				c-0.2,0-0.3,0.1-0.4,0.3c0,0.7-0.6,1.2-1.3,1.2c-0.2,0-0.3,0-0.5-0.1c0,0,0,0,0,0c-0.4-0.2-0.7-0.6-0.8-1.1
				c0-0.2-0.2-0.3-0.4-0.3h-0.1c0,0,0,0,0,0v-0.2h0c0,0,0,0,0,0H216z M215.9,422.6v-0.7h1.9c0.6,0,1,0.5,1,1v0.2h-2.4
				C216.2,423.1,215.9,422.9,215.9,422.6z M217.8,427.1v0.1l-0.3,0.3l-0.3-0.3v-0.1c0.1,0,0.2,0,0.3,0
				C217.7,427.1,217.8,427.1,217.8,427.1z M220.8,428.7H220v-0.6c0-0.7-0.6-1.3-1.3-1.3c0.1-0.1,0.2-0.1,0.3-0.2
				c0.3-0.3,0.5-0.6,0.6-1c0.3-0.1,0.5-0.4,0.5-0.7v-0.2c0-0.3-0.2-0.6-0.5-0.7v-0.5c0,0,0,0,0,0v-0.5c0-1-0.8-1.8-1.8-1.8h-2.2
				c-0.2,0-0.4,0.2-0.4,0.4v1c0,0.4,0.2,0.7,0.4,1v0.5c-0.3,0.1-0.5,0.4-0.5,0.7v0.2c0,0.3,0.2,0.6,0.5,0.7c0.1,0.5,0.4,0.9,0.8,1.2
				c-0.7,0-1.3,0.6-1.3,1.3v0.6h-0.8c-0.3,0-0.5-0.2-0.5-0.5v-7.3c0-0.3,0.2-0.5,0.5-0.5h6.3c0.3,0,0.5,0.2,0.5,0.5v7.3h0
				C221.3,428.5,221,428.7,220.8,428.7z"/>
		</g>
	</g>
	<g>
		<g>
			<path d="M221.2,430.4H214c-0.2,0-0.4,0.2-0.4,0.4c0,0.2,0.2,0.4,0.4,0.4h7.3c0.2,0,0.4-0.2,0.4-0.4
				C221.6,430.6,221.4,430.4,221.2,430.4z"/>
		</g>
	</g>
	<g>
		<g>
			<path d="M216.9,414.5l-1.4-3.7c-0.1-0.3-0.3-0.5-0.5-0.6c-0.3-0.1-0.5-0.1-0.8,0l-3.3,1.2c-0.2,0.1-0.3,0.3-0.2,0.5
				c0.1,0.2,0.3,0.3,0.5,0.2l3.3-1.2c0.1,0,0.2,0,0.3,0c0.1,0,0.1,0.1,0.2,0.2l0.6,1.6l-0.7-0.5c-0.2-0.2-0.5-0.2-0.8-0.1
				c-0.3,0.1-0.5,0.3-0.5,0.6l-0.5,2.3l-1.6-0.5c-0.3-0.1-0.7,0-0.9,0.3l-0.5,0.8l-0.8-2.3c-0.1-0.2,0-0.4,0.2-0.4l0.5-0.2
				c0.2-0.1,0.3-0.3,0.2-0.5c-0.1-0.2-0.3-0.3-0.5-0.2L209,412c-0.5,0.2-0.8,0.8-0.6,1.3l1.4,3.7c0.2,0.4,0.6,0.7,1,0.7
				c0.1,0,0.2,0,0.4-0.1l5.2-1.9C216.8,415.6,217.1,415,216.9,414.5z M210.9,417.1c-0.1,0-0.2,0-0.3,0s-0.1-0.1-0.2-0.2l-0.2-0.6
				l0.8-1.2c0,0,0.1-0.1,0.1,0l2.9,0.9L210.9,417.1z M216.1,415.2l-0.9,0.3l-1.5-0.5l0.5-2.4c0-0.1,0.1-0.1,0.1-0.1c0,0,0.1,0,0.1,0
				l1.6,1.2l0.3,0.9C216.3,414.9,216.2,415.1,216.1,415.2z"/>
		</g>
	</g>
	<g>
		<g>
			<path d="M221.9,416.4l-0.4-0.9c-0.1-0.3-0.4-0.4-0.7-0.3l-4.1,1.6c-0.3,0.1-0.4,0.4-0.3,0.7l0.4,0.9c0.1,0.2,0.3,0.3,0.5,0.3
				c0.1,0,0.1,0,0.2,0l4.1-1.6c0.1-0.1,0.2-0.1,0.3-0.3S221.9,416.5,221.9,416.4z M217.5,418l-0.2-0.6l3.7-1.5l0.2,0.6L217.5,418z"
				/>
		</g>
	</g>
	<g>
		<g>
			<path d="M210.4,427.9c-1,0-1.7,0.8-1.7,1.7c0,0.2,0.2,0.4,0.4,0.4s0.4-0.2,0.4-0.4c0-0.6,0.5-1,1-1c0.6,0,1,0.5,1,1s-0.5,1-1,1
				c-0.2,0-0.3,0-0.5-0.1c-0.2-0.1-0.4,0-0.5,0.1c-0.1,0.2,0,0.4,0.1,0.5c0.3,0.1,0.5,0.2,0.8,0.2c1,0,1.7-0.8,1.7-1.7
				S211.4,427.9,210.4,427.9z"/>
		</g>
	</g>
</g>
</svg>
