<?xml version="1.0" encoding="utf-8"?>
<!-- Generator: Adobe Illustrator 19.0.0, SVG Export Plug-In . SVG Version: 6.00 Build 0)  -->
<svg version="1.1" id="Capa_1" xmlns="http://www.w3.org/2000/svg" xmlns:xlink="http://www.w3.org/1999/xlink" x="0px" y="0px"
	 width="24px" height="24px" viewBox="-255.2 409.1 24 24" style="enable-background:new -255.2 409.1 24 24;" xml:space="preserve"
	>
<g>
	<path d="M-231.2,431.2l-7.1-7.1c1.2-1.6,1.9-3.5,1.9-5.6c0-5.2-4.2-9.4-9.4-9.4s-9.4,4.2-9.4,9.4s4.2,9.4,9.4,9.4
		c2.1,0,4-0.7,5.6-1.9l7.1,7.1L-231.2,431.2z M-254.3,418.5c0-4.7,3.8-8.5,8.5-8.5c4.7,0,8.5,3.8,8.5,8.5s-3.8,8.5-8.5,8.5
		C-250.5,427-254.3,423.2-254.3,418.5z M-239.3,425.2c0.1-0.1,0.2-0.2,0.2-0.2c0.1-0.1,0.1-0.1,0.2-0.2l6.4,6.4l-0.6,0.6l-6.4-6.4
		C-239.4,425.4-239.3,425.3-239.3,425.2z"/>
</g>
</svg>
