<?xml version="1.0" encoding="utf-8"?>
<!-- Generator: Adobe Illustrator 19.0.0, SVG Export Plug-In . SVG Version: 6.00 Build 0)  -->
<svg version="1.1" id="Layer_1" xmlns="http://www.w3.org/2000/svg" xmlns:xlink="http://www.w3.org/1999/xlink" x="0px" y="0px"
	 width="24px" height="24px" viewBox="-285 408.9 24 24" style="enable-background:new -285 408.9 24 24;" xml:space="preserve">
<style type="text/css">
	.st0{fill:#1D6AB0;}
</style>
<path class="st0" d="M-265.8,418.6c2.6,0,4.8-2.2,4.8-4.8c0-2.6-2.2-4.8-4.8-4.8c-1.9,0-3.6,1.1-4.3,2.8l-1.3-0.5c0-0.1,0-0.2,0-0.3
	c0-1.1-0.9-2-2-2c-1.1,0-2,0.9-2,2s0.9,2,2,2c0.7,0,1.3-0.4,1.7-0.9l1.3,0.5c-0.1,0.4-0.2,0.8-0.2,1.3s0.1,1,0.2,1.5l-4.4,1.9
	c-0.8-1.5-2.4-2.6-4.2-2.6c-0.6,0-1.2,0.1-1.7,0.3l-1.1-2.3c0.5-0.4,0.8-0.9,0.8-1.6c0-1.1-0.9-2-2-2s-2,0.9-2,2s0.9,2,2,2
	c0.2,0,0.3,0,0.5-0.1l1.1,2.3c-1.4,0.8-2.4,2.4-2.4,4.1s0.8,3.1,2.1,4l-0.7,1.3c-0.2-0.1-0.4-0.1-0.6-0.1c-1.1,0-2,0.9-2,2
	s0.9,2,2,2c1.1,0,2-0.9,2-2c0-0.6-0.3-1.1-0.7-1.5l0.7-1.3c0.6,0.3,1.3,0.4,2,0.4c1.1,0,2.1-0.4,2.9-1l1.6,1.7
	c-0.8,0.9-1.3,2-1.3,3.3c0,0.2,0,0.5,0.1,0.7l-1.9,0.4c-0.3-0.7-1-1.2-1.8-1.2c-1.1,0-2,0.9-2,2s0.9,2,2,2c1.1,0,2-0.9,2-2
	c0,0,0,0,0-0.1l1.8-0.4c0.6,1.9,2.4,3.3,4.6,3.3c2.6,0,4.8-2.2,4.8-4.8c0-0.8-0.2-1.6-0.6-2.3l2.3-1.5c0.4,0.4,0.9,0.6,1.4,0.6
	c1.1,0,2-0.9,2-2s-0.9-2-2-2s-2,0.9-2,2c0,0.3,0.1,0.5,0.1,0.7l-2.4,1.5c-0.5-0.6-1.1-1.1-1.8-1.4l2-5.4
	C-266.6,418.5-266.2,418.6-265.8,418.6z M-273.4,412.2c-0.7,0-1.2-0.5-1.2-1.2s0.5-1.2,1.2-1.2s1.2,0.5,1.2,1.2
	S-272.7,412.2-273.4,412.2z M-284.2,411c0-0.7,0.5-1.2,1.2-1.2s1.2,0.5,1.2,1.2s-0.5,1.2-1.2,1.2S-284.2,411.7-284.2,411z
	 M-283,427.8c-0.7,0-1.2-0.5-1.2-1.2s0.5-1.2,1.2-1.2s1.2,0.5,1.2,1.2S-282.3,427.8-283,427.8z M-279.4,431.4
	c-0.7,0-1.2-0.5-1.2-1.2s0.5-1.2,1.2-1.2s1.2,0.5,1.2,1.2S-278.7,431.4-279.4,431.4z M-263,421.8c0.7,0,1.2,0.5,1.2,1.2
	s-0.5,1.2-1.2,1.2s-1.2-0.5-1.2-1.2S-263.7,421.8-263,421.8z M-268.2,417c0.2-0.9,1-1.6,2-1.6h0.8c1,0,1.8,0.7,2,1.6
	c-0.7,0.5-1.5,0.8-2.4,0.8C-266.7,417.8-267.5,417.5-268.2,417z M-265.8,414.6c-0.7,0-1.2-0.5-1.2-1.2s0.5-1.2,1.2-1.2
	c0.7,0,1.2,0.5,1.2,1.2S-265.1,414.6-265.8,414.6z M-265.8,409.8c2.2,0,4,1.8,4,4c0,1-0.4,1.9-1,2.6c-0.3-0.7-0.9-1.3-1.6-1.6
	c0.4-0.4,0.6-0.9,0.6-1.4c0-1.1-0.9-2-2-2c-1.1,0-2,0.9-2,2c0,0.5,0.2,1,0.6,1.4c-0.7,0.3-1.3,0.9-1.6,1.6c-0.6-0.7-1-1.6-1-2.6
	C-269.8,411.6-268,409.8-265.8,409.8z M-283,419.4c0-2.2,1.8-4,4-4s4,1.8,4,4c0,1-0.4,1.9-1,2.6c-0.3-0.7-0.9-1.3-1.6-1.6
	c0.4-0.4,0.6-0.9,0.6-1.4c0-1.1-0.9-2-2-2s-2,0.9-2,2c0,0.5,0.2,1,0.6,1.4c-0.7,0.3-1.3,0.9-1.6,1.6
	C-282.6,421.3-283,420.4-283,419.4z M-280.2,419c0-0.7,0.5-1.2,1.2-1.2s1.2,0.5,1.2,1.2s-0.5,1.2-1.2,1.2S-280.2,419.7-280.2,419z
	 M-281.4,422.6c0.2-0.9,1-1.6,2-1.6h0.8c1,0,1.8,0.7,2,1.6c-0.7,0.5-1.5,0.8-2.3,0.8C-279.9,423.4-280.7,423.1-281.4,422.6z
	 M-273.4,431.4c0.2-0.9,1-1.6,2-1.6h0.8c1,0,1.8,0.7,2,1.6c-0.7,0.5-1.5,0.8-2.3,0.8C-271.9,432.2-272.7,431.9-273.4,431.4z
	 M-271,429c-0.7,0-1.2-0.5-1.2-1.2s0.5-1.2,1.2-1.2s1.2,0.5,1.2,1.2S-270.3,429-271,429z M-267,428.2c0,1-0.4,1.9-1,2.6
	c-0.3-0.7-0.9-1.3-1.6-1.6c0.4-0.4,0.6-0.9,0.6-1.4c0-1.1-0.9-2-2-2s-2,0.9-2,2c0,0.5,0.2,1,0.6,1.4c-0.7,0.3-1.3,0.9-1.6,1.6
	c-0.6-0.7-1-1.6-1-2.6c0-2.2,1.8-4,4-4S-267,426-267,428.2z M-269.8,423.6c-0.4-0.1-0.8-0.2-1.2-0.2c-1.1,0-2.1,0.4-2.9,1l-1.6-1.7
	c0.8-0.9,1.3-2,1.3-3.3c0-0.5-0.1-1-0.2-1.5l4.4-1.9c0.5,0.9,1.3,1.7,2.2,2.1L-269.8,423.6z"/>
</svg>
