<?xml version="1.0" encoding="utf-8"?>
<!-- Generator: Adobe Illustrator 19.0.0, SVG Export Plug-In . SVG Version: 6.00 Build 0)  -->
<svg version="1.1" id="Layer_1" xmlns="http://www.w3.org/2000/svg" xmlns:xlink="http://www.w3.org/1999/xlink" x="0px" y="0px"
	 width="24px" height="24px" viewBox="171 408.9 24 24" style="enable-background:new 171 408.9 24 24;" xml:space="preserve">
<path d="M190.2,418.5c2.6,0,4.8-2.2,4.8-4.8c0-2.6-2.2-4.8-4.8-4.8c-1.9,0-3.6,1.1-4.3,2.8l-1.3-0.5c0-0.1,0-0.2,0-0.3
	c0-1.1-0.9-2-2-2c-1.1,0-2,0.9-2,2s0.9,2,2,2c0.7,0,1.3-0.4,1.7-0.9l1.3,0.5c-0.1,0.4-0.2,0.8-0.2,1.3c0,0.5,0.1,1,0.2,1.5l-4.4,1.9
	c-0.8-1.5-2.4-2.6-4.2-2.6c-0.6,0-1.2,0.1-1.7,0.3l-1.1-2.3c0.5-0.4,0.8-0.9,0.8-1.6c0-1.1-0.9-2-2-2s-2,0.9-2,2s0.9,2,2,2
	c0.2,0,0.3,0,0.5-0.1l1.1,2.3c-1.4,0.8-2.4,2.4-2.4,4.1c0,1.7,0.8,3.1,2.1,4l-0.7,1.3c-0.2-0.1-0.4-0.1-0.6-0.1c-1.1,0-2,0.9-2,2
	c0,1.1,0.9,2,2,2s2-0.9,2-2c0-0.6-0.3-1.1-0.7-1.5l0.7-1.3c0.6,0.3,1.3,0.4,2,0.4c1.1,0,2.1-0.4,2.9-1l1.6,1.7
	c-0.8,0.9-1.3,2-1.3,3.3c0,0.2,0,0.5,0.1,0.7l-1.9,0.4c-0.3-0.7-1-1.2-1.8-1.2c-1.1,0-2,0.9-2,2c0,1.1,0.9,2,2,2c1.1,0,2-0.9,2-2
	c0,0,0,0,0-0.1l1.8-0.4c0.6,1.9,2.4,3.3,4.6,3.3c2.6,0,4.8-2.2,4.8-4.8c0-0.8-0.2-1.6-0.6-2.3l2.3-1.5c0.4,0.4,0.9,0.6,1.4,0.6
	c1.1,0,2-0.9,2-2s-0.9-2-2-2s-2,0.9-2,2c0,0.3,0.1,0.5,0.1,0.7l-2.4,1.5c-0.5-0.6-1.1-1.1-1.8-1.4l2-5.4
	C189.4,418.4,189.8,418.5,190.2,418.5z M182.6,412.1c-0.7,0-1.2-0.5-1.2-1.2s0.5-1.2,1.2-1.2c0.7,0,1.2,0.5,1.2,1.2
	S183.3,412.1,182.6,412.1z M171.8,410.9c0-0.7,0.5-1.2,1.2-1.2s1.2,0.5,1.2,1.2s-0.5,1.2-1.2,1.2S171.8,411.6,171.8,410.9z
	 M173,427.7c-0.7,0-1.2-0.5-1.2-1.2s0.5-1.2,1.2-1.2s1.2,0.5,1.2,1.2S173.7,427.7,173,427.7z M176.6,431.3c-0.7,0-1.2-0.5-1.2-1.2
	c0-0.7,0.5-1.2,1.2-1.2c0.7,0,1.2,0.5,1.2,1.2C177.8,430.8,177.3,431.3,176.6,431.3z M193,421.7c0.7,0,1.2,0.5,1.2,1.2
	s-0.5,1.2-1.2,1.2s-1.2-0.5-1.2-1.2S192.3,421.7,193,421.7z M187.8,416.9c0.2-0.9,1-1.6,2-1.6h0.8c1,0,1.8,0.7,2,1.6
	c-0.7,0.5-1.5,0.8-2.4,0.8C189.3,417.7,188.5,417.4,187.8,416.9z M190.2,414.5c-0.7,0-1.2-0.5-1.2-1.2s0.5-1.2,1.2-1.2
	c0.7,0,1.2,0.5,1.2,1.2S190.9,414.5,190.2,414.5z M190.2,409.7c2.2,0,4,1.8,4,4c0,1-0.4,1.9-1,2.6c-0.3-0.7-0.9-1.3-1.6-1.6
	c0.4-0.4,0.6-0.9,0.6-1.4c0-1.1-0.9-2-2-2s-2,0.9-2,2c0,0.5,0.2,1,0.6,1.4c-0.7,0.3-1.3,0.9-1.6,1.6c-0.6-0.7-1-1.6-1-2.6
	C186.2,411.5,188,409.7,190.2,409.7z M173,419.3c0-2.2,1.8-4,4-4s4,1.8,4,4c0,1-0.4,1.9-1,2.6c-0.3-0.7-0.9-1.3-1.6-1.6
	c0.4-0.4,0.6-0.9,0.6-1.4c0-1.1-0.9-2-2-2s-2,0.9-2,2c0,0.5,0.2,1,0.6,1.4c-0.7,0.3-1.3,0.9-1.6,1.6
	C173.4,421.2,173,420.3,173,419.3z M175.8,418.9c0-0.7,0.5-1.2,1.2-1.2c0.7,0,1.2,0.5,1.2,1.2s-0.5,1.2-1.2,1.2
	C176.3,420.1,175.8,419.6,175.8,418.9z M174.6,422.5c0.2-0.9,1-1.6,2-1.6h0.8c1,0,1.8,0.7,2,1.6c-0.7,0.5-1.5,0.8-2.3,0.8
	C176.1,423.3,175.3,423,174.6,422.5z M182.6,431.3c0.2-0.9,1-1.6,2-1.6h0.8c1,0,1.8,0.7,2,1.6c-0.7,0.5-1.5,0.8-2.3,0.8
	C184.1,432.1,183.3,431.8,182.6,431.3z M185,428.9c-0.7,0-1.2-0.5-1.2-1.2c0-0.7,0.5-1.2,1.2-1.2c0.7,0,1.2,0.5,1.2,1.2
	C186.2,428.4,185.7,428.9,185,428.9z M189,428.1c0,1-0.4,1.9-1,2.6c-0.3-0.7-0.9-1.3-1.6-1.6c0.4-0.4,0.6-0.9,0.6-1.4
	c0-1.1-0.9-2-2-2s-2,0.9-2,2c0,0.5,0.2,1,0.6,1.4c-0.7,0.3-1.3,0.9-1.6,1.6c-0.6-0.7-1-1.6-1-2.6c0-2.2,1.8-4,4-4
	S189,425.9,189,428.1z M186.2,423.5c-0.4-0.1-0.8-0.2-1.2-0.2c-1.1,0-2.1,0.4-2.9,1l-1.6-1.7c0.8-0.9,1.3-2,1.3-3.3
	c0-0.5-0.1-1-0.2-1.5l4.4-1.9c0.5,0.9,1.3,1.7,2.2,2.1L186.2,423.5z"/>
</svg>
