<?xml version="1.0" encoding="utf-8"?>
<!-- Generator: Adobe Illustrator 19.0.0, SVG Export Plug-In . SVG Version: 6.00 Build 0)  -->
<svg version="1.1" id="Layer_1" xmlns="http://www.w3.org/2000/svg" xmlns:xlink="http://www.w3.org/1999/xlink" x="0px" y="0px"
	 width="26.9px" height="24px" viewBox="201.5 408.9 26.9 24" style="enable-background:new 201.5 408.9 26.9 24;"
	 xml:space="preserve">
<g>
	<g>
		<g>
			<path d="M228.2,418.4l-12.8-9.3c-0.2-0.2-0.6-0.2-0.8,0l-12.8,9.3c-0.3,0.2-0.4,0.7-0.2,1c0.2,0.3,0.7,0.4,1,0.2l12.3-9l12.3,9
				c0.1,0.1,0.3,0.1,0.4,0.1c0.2,0,0.4-0.1,0.6-0.3C228.6,419,228.5,418.6,228.2,418.4z"/>
		</g>
	</g>
	<g>
		<g>
			<path d="M224.8,419.7c-0.4,0-0.7,0.3-0.7,0.7v11.1h-5.6v-6.1c0-1.9-1.6-3.5-3.5-3.5c-1.9,0-3.5,1.6-3.5,3.5v6.1h-5.6v-11.1
				c0-0.4-0.3-0.7-0.7-0.7c-0.4,0-0.7,0.3-0.7,0.7v11.8c0,0.4,0.3,0.7,0.7,0.7h7c0.4,0,0.7-0.3,0.7-0.6c0,0,0,0,0-0.1v-6.8
				c0-1.2,0.9-2.1,2.1-2.1c1.2,0,2.1,0.9,2.1,2.1v6.8c0,0,0,0,0,0.1c0,0.4,0.3,0.6,0.7,0.6h7c0.4,0,0.7-0.3,0.7-0.7v-11.8
				C225.5,420,225.2,419.7,224.8,419.7z"/>
		</g>
	</g>
</g>
</svg>
