<svg width="60" height="60" viewBox="0 0 60 60" fill="none" xmlns="http://www.w3.org/2000/svg">
<path d="M59.0992 15.1277C59.0923 15.124 39.1306 7.62993 39.1228 7.62672C40.9626 3.46931 37.1013 -1.06943 32.6372 0.224675C32.1657 0.362004 31.8947 0.854558 32.0321 1.3256C32.168 1.79572 32.6606 2.06809 33.1321 1.93076C35.4653 1.25098 37.8077 3.01109 37.8077 5.43998C37.8077 9.08928 33.1142 10.4209 31.1261 7.48619C30.331 6.31294 30.3113 4.82795 30.9559 3.66889C31.1939 3.23997 31.0387 2.70026 30.6098 2.46131C30.1813 2.22327 29.6402 2.37846 29.4022 2.80692C28.0527 5.23719 28.7554 8.34953 31.1261 9.94759V14.5957C31.1261 15.086 31.5239 15.4838 32.0142 15.4838C32.5054 15.4838 32.9023 15.086 32.9023 14.5957V10.7253C33.7473 10.9277 34.6889 10.9267 35.5935 10.6768V37.0981C35.2057 37.0981 33.7981 37.0953 32.9023 37.0953V18.148C32.9023 17.6568 32.5054 17.2599 32.0142 17.2599C31.5239 17.2599 31.1261 17.6568 31.1261 18.148V37.0953C29.5185 37.0953 28.0774 37.3741 26.5654 38.2406C26.1699 37.4542 25.3556 36.9131 24.4167 36.9131H20.0098C18.6846 36.9131 17.6061 37.9907 17.6061 39.3155V40.7364H2.67563C1.19934 40.7364 0 41.9371 0 43.412V54.1983C0 55.675 1.19934 56.8744 2.67563 56.8744H17.6061V57.5963C17.6061 58.9215 18.6846 60 20.0098 60H24.4167C25.2228 60 25.9378 59.6008 26.3736 58.9888C28.4615 60.0517 28.4583 59.8164 43.4318 59.8164C46.0754 59.8164 47.3498 56.5814 45.5356 54.7385C46.6686 53.5876 46.6704 51.7003 45.5402 50.5472C46.6695 49.3922 46.6682 47.5099 45.5402 46.3591C47.2587 44.6058 46.2022 41.5722 43.7559 41.3035C44.1587 39.5183 42.6137 37.0981 40.0937 37.0981H37.3696V25.7446L44.632 23.0177C45.0916 22.846 45.3237 22.3347 45.1507 21.8751C44.979 21.416 44.4663 21.1839 44.0081 21.3555L37.3696 23.8476V9.81392C37.6392 9.61479 37.8892 9.39095 38.1176 9.14696L57.3222 16.3567L47.3328 20.1077C46.8746 20.2793 46.6411 20.792 46.8142 21.2512C46.9858 21.7094 47.4985 21.9428 47.9581 21.7698C47.9719 21.7648 59.085 17.5932 59.0983 17.5868C60.2111 17.1491 60.2143 15.5694 59.0992 15.1277ZM17.6061 55.0983H2.67563C2.17987 55.0983 1.77613 54.6945 1.77613 54.1983V43.412C1.77613 42.9162 2.17987 42.5125 2.67563 42.5125H17.6061V55.0983ZM24.8923 58.0028C24.646 58.298 24.8072 58.2239 20.0098 58.2239C19.6637 58.2239 19.3822 57.9424 19.3822 57.5963C19.3822 55.3899 19.3822 40.0561 19.3822 39.3155C19.3822 38.9698 19.6637 38.6892 20.0098 38.6892H24.4167C24.7335 38.6892 25.0438 38.9424 25.0438 39.3461C25.0438 59.0913 25.1093 57.7505 24.8923 58.0028ZM26.82 57.2072V52.7408C28.3677 52.4913 29.8252 51.9443 31.1261 51.1592C31.1261 57.4983 31.0891 57.3889 31.2328 58.0403C29.7268 58.0403 28.4249 58.1712 26.82 57.2072ZM34.0091 58.0403H33.1069C32.8341 57.5473 32.9023 57.4937 32.9023 49.8555C33.2181 49.5762 33.5202 49.2801 33.8054 48.9688C33.9061 49.5772 34.1941 50.1242 34.6084 50.5472C33.4653 51.7108 33.4928 53.6027 34.6129 54.7385C33.7194 55.6444 33.5468 56.9801 34.0091 58.0403ZM43.4318 58.0403C42.741 58.0403 37.6063 58.0403 36.7173 58.0403C35.897 58.0403 35.3518 57.2342 35.5935 56.4587C35.7427 55.979 36.1904 55.6311 36.7173 55.6311H43.4318C44.0804 55.6311 44.6082 56.1589 44.6082 56.808C44.6082 57.5711 44.0397 58.0403 43.4318 58.0403ZM43.267 53.8458C41.3425 53.8458 38.6628 53.8458 36.7173 53.8458C35.9093 53.8458 35.3467 53.0534 35.5935 52.2624C35.7427 51.7831 36.1904 51.4348 36.7173 51.4348H43.4318C44.9213 51.4348 45.1365 53.8458 43.267 53.8458ZM35.5404 48.4241C35.5404 47.7782 36.0654 47.2471 36.7173 47.2471H43.4318C44.0337 47.2471 44.6082 47.7099 44.6082 48.4799C44.6082 49.1299 44.0804 49.6577 43.4318 49.6577C42.9117 49.6577 42.7428 49.6577 42.7474 49.6577C41.9065 49.6577 40.1473 49.6577 36.7173 49.6577C36.1149 49.6577 35.5404 49.1958 35.5404 48.4241ZM43.4318 43.0618C44.0337 43.0618 44.6082 43.5246 44.6082 44.2941C44.6082 44.9432 44.0804 45.471 43.4318 45.471C36.0993 45.471 36.498 45.5314 36.1217 45.309C35.8718 45.162 35.6809 44.9267 35.5935 44.6461V43.8894C35.8892 42.9396 36.8578 43.0618 37.3696 43.0618H43.4318ZM40.0937 38.8737C41.9385 38.8737 42.5588 41.2843 41.5655 41.2843H40.6385C40.654 41.2843 40.6692 41.2843 40.6833 41.2857C36.33 41.2857 36.1332 41.1941 35.3174 41.6395C33.8613 42.4214 33.4003 44.198 34.0508 45.5621C32.5951 48.3458 29.9227 50.3458 26.82 50.9376C26.82 47.8308 26.82 43.6972 26.82 40.188C27.9602 39.3603 29.361 38.8714 30.873 38.8714C34.1987 38.8714 40.0777 38.8737 40.0937 38.8737Z" fill="#9D9D9D"/>
</svg>
